<?xml version="1.0" encoding="utf-8"?>
<!-- Generator: Adobe Illustrator 19.2.0, SVG Export Plug-In . SVG Version: 6.00 Build 0)  -->
<svg version="1.1" id="Capa_1" xmlns="http://www.w3.org/2000/svg" xmlns:xlink="http://www.w3.org/1999/xlink" x="0px" y="0px"
	 viewBox="0 0 355.8 355.8" style="enable-background:new 0 0 355.8 355.8;" xml:space="preserve">
<style type="text/css">
	.st0{fill:#5A5A5A;}
</style>
<g>
	<g>
		<path class="st0" d="M320.2,38.8c-7.2-8.4-19.4-13.2-36.2-14.4c0.2-10.1-0.1-16.5-0.1-17.2c-0.2-4-3.5-7.2-7.5-7.2h-98.6H79.3
			c-4,0-7.3,3.2-7.5,7.2c0,0.7-0.3,7.1-0.1,17.2c-16.8,1.2-28.9,6-36.2,14.4c-6.5,7.5-8.9,17.4-7.1,29.5c0.3,2.7,3.2,29.2,14.2,58.5
			c7.6,20.3,18.8,33.6,33.3,39.5c6,2.5,11.8,3.3,17,3.3c5.6,0,10.4-1,13.7-2c11.9,17.9,26.5,30.3,43.7,37
			c-3.4,51.9-39.6,61.9-46.6,63.4H85c-4.1,0-7.5,3.4-7.5,7.5v72.8c0,4.1,3.4,7.5,7.5,7.5h185.7c4.1,0,7.5-3.4,7.5-7.5v-72.8
			c0-4.1-3.4-7.5-7.5-7.5h-18.7c-7-1.5-43.2-11.5-46.6-63.4c17.2-6.7,31.9-19.1,43.7-37c3.3,1,8.1,2,13.7,2c5.1,0,11-0.8,17-3.3
			c14.5-5.9,25.7-19.2,33.3-39.5c11-29.3,13.9-55.8,14.2-58.5C329.1,56.2,326.7,46.3,320.2,38.8z M177.9,15h91.2
			c0,2.5,0,5.5-0.1,9.1H86.8c-0.1-3.5-0.1-6.6-0.1-9.1H177.9z M81.4,152.3C71,148,62.7,137.6,56.7,121.5
			C46.1,93.1,43.4,66.9,43.4,66.6c0-0.1,0-0.2,0-0.4c-1.1-7.7,0-13.5,3.6-17.7c4.4-5.2,13.2-8.3,25.4-9.2c1,18,3.4,41.6,9,65.5
			c4.4,18.8,10.2,35.2,17.4,49.2C94.2,154.8,87.9,155,81.4,152.3z M263.3,340.8H92.5V283h170.7V340.8z M219.4,268h-82.9
			c12.1-9.9,25.7-27.9,28.6-59.2c8.5,2.1,15.7,2.3,25.7,0C193.6,240.1,207.3,258.1,219.4,268z M159.5,192
			C102.9,173.6,90.1,86.6,87.4,39.1h181c-2.7,47.5-15.6,134.2-72.1,152.8C185.2,195.6,172,196,159.5,192z M312.5,66.2
			c0,0.1,0,0.2,0,0.4c0,0.3-2.7,26.4-13.3,54.9c-6,16.1-14.4,26.5-24.8,30.8c-6.5,2.7-12.8,2.5-17.3,1.8c7.2-13.9,13-30.3,17.4-49.1
			c5.6-23.9,8-47.5,9-65.5c12.2,0.9,20.9,4,25.4,9.2C312.5,52.7,313.7,58.5,312.5,66.2z"/>
		<path class="st0" d="M224.7,292.9h-93.5c-4.1,0-7.5,3.4-7.5,7.5v23c0,4.1,3.4,7.5,7.5,7.5h93.5c4.1,0,7.5-3.4,7.5-7.5v-23
			C232.2,296.3,228.8,292.9,224.7,292.9z M217.2,315.9h-78.5v-8h78.5L217.2,315.9L217.2,315.9z"/>
	</g>
</g>
</svg>
