<?xml version="1.0" encoding="utf-8"?>
<!-- Generator: Adobe Illustrator 19.2.0, SVG Export Plug-In . SVG Version: 6.00 Build 0)  -->
<svg version="1.1" id="Capa_1" xmlns="http://www.w3.org/2000/svg" xmlns:xlink="http://www.w3.org/1999/xlink" x="0px" y="0px"
	 viewBox="0 0 612 612" style="enable-background:new 0 0 612 612;" xml:space="preserve">
<style type="text/css">
	.st0{fill:#5A5A5A;}
</style>
<g>
	<path class="st0" d="M611.9,131.7V85.4v-0.8c-1.6-16.2-12.4-27-27.8-28.6h-0.8h-92.6V35.2c0-14.6-12.4-27-27-27H139.8
		c-14.6,0-27,12.4-27,27v20.9H28.8H28C12.6,56.8,1.8,68.4,0.2,84.6v0.8v46.3c-0.8,12.4-4.6,131.9,123.4,152
		c20.1,56.3,66.4,101.1,125,118v76.4l-101.9,48.6c0,0-0.8,0-0.8,0.8c-14.6,8.5-22.4,20.9-22.4,34.7v15.4v0.8
		c1.6,15.4,12.4,25.4,28.6,25.4h300.1c16.2,0,27.8-10,28.6-25.4v-0.8v-15.4c0-13.9-7.7-26.2-22.4-34.7l-0.8-0.8l-100.3-47.9V401
		c56.3-17,101.9-60.9,122.6-116.5c43.2-5.4,76.4-21.6,99.5-48.6C615,193.4,611.9,139.4,611.9,131.7z M115.9,253.6
		C21,231.3,28,138.7,28.8,134.1c0-0.8,0-0.8,0-1.6V86.2c0-0.8,0-1.6,0-1.6h0.8h83.3v135.8c0,5.4,0,10,0.8,15.4c0,0.8,0,1.6,0,1.6
		C114.3,242.8,115.1,247.4,115.9,253.6C115.9,252.8,115.9,252.8,115.9,253.6z M452.3,561.4v13.1l0,0H151.4l0,0v-13.1
		c0-3.9,4.6-7.7,7.7-9.3L264,502.8h75.6l104.9,49.4C447.6,553.7,452.3,557.6,452.3,561.4z M328,409.4v64.8h-50.9v-64.8H328z
		 M301.8,380.9c-72.5,0-133.4-47.9-153.5-113.4l0,0c-0.8-3.9-2.3-7.7-3.1-11.6l0,0c-1.6-6.9-2.3-14.6-3.1-21.6c0-0.8,0-1.6,0-2.3
		c0-3.9-0.8-6.9-0.8-10.8V70.8V36.8h320.1v38.6v144.3c0,3.9,0,6.9-0.8,10.8c0,0.8,0,1.6,0,2.3c0,3.1-0.8,6.9-0.8,10v0.8
		c-0.8,3.9-1.6,6.9-2.3,10.8c0,0.8,0,1.6-0.8,2.3c-0.8,3.1-1.6,6.1-2.3,9.3C435.3,332.3,373.5,380.9,301.8,380.9z M557.2,218.1
		c-16.2,19.3-39.4,31.6-69.4,37v-0.8c0.8-5.4,1.6-10,2.3-15.4c0-0.8,0-1.6,0-1.6c0.8-5.4,0.8-10.8,0.8-16.2V84.7h91.8
		c0.8,0,0.8,0,0.8,0s0,0.8,0,1.6v46.3c0,0.8,0,0.8,0,1.6C583.4,134.8,587.3,181.8,557.2,218.1z M272.5,313.8
		c-2.3,5.4-7.7,9.3-13.1,9.3c-1.6,0-3.1,0-5.4-0.8c-47.1-17.7-57.1-60.1-56.3-79.4v-145c0-7.7,6.1-13.9,13.9-13.9
		c7.7,0,13.9,6.1,13.9,13.9v145.8c0,2.3-1.6,37.8,37.8,52.4C271.8,298.3,275.6,306.8,272.5,313.8z"/>
</g>
</svg>
