<?xml version="1.0" encoding="utf-8"?>
<!-- Generator: Adobe Illustrator 16.0.4, SVG Export Plug-In . SVG Version: 6.00 Build 0)  -->
<!DOCTYPE svg PUBLIC "-//W3C//DTD SVG 1.1//EN" "http://www.w3.org/Graphics/SVG/1.1/DTD/svg11.dtd">
<svg version="1.1" id="Capa_1" xmlns="http://www.w3.org/2000/svg" xmlns:xlink="http://www.w3.org/1999/xlink" x="0px" y="0px"
	 width="500px" height="500px" viewBox="0 0 500 500" enable-background="new 0 0 500 500" xml:space="preserve">
<path fill="#5A5A5A" d="M494.832,208.656h-17.229c-4.552-8.854-14.548-15.018-26.128-15.018s-21.575,6.164-26.128,15.018h-74.863
	c-16.272-19.634-37.958-34.108-62.141-41.552c15.914-13.425,26.256-34.972,26.256-59.223c0-37.867-25.96-63.308-64.6-63.308
	c-38.638,0-64.6,25.44-64.6,63.308c0,24.251,10.341,45.797,26.257,59.223c-24.181,7.442-45.867,21.917-62.14,41.552H74.654
	c-4.552-8.854-14.548-15.018-26.128-15.018s-21.576,6.164-26.128,15.018H5.168c-2.854,0-5.168,2.314-5.168,5.168v236.435
	c0,2.854,2.314,5.168,5.168,5.168h489.664c2.854,0,5.168-2.313,5.168-5.168V213.824C500,210.97,497.688,208.656,494.832,208.656z
	 M465.181,245.12v173.844H34.819V245.12H465.181z M451.475,203.974c10.153,0,18.416,6.911,18.416,15.406
	c0,8.494-8.263,15.404-18.416,15.404s-18.416-6.911-18.416-15.404C433.06,210.885,441.32,203.974,451.475,203.974z M195.736,107.881
	c0-32.179,21.3-52.972,54.264-52.972s54.264,20.793,54.264,52.972c0,34.908-24.342,63.307-54.264,63.307
	C220.079,171.188,195.736,142.79,195.736,107.881z M223.028,174.772c8.214,4.322,17.346,6.752,26.972,6.752
	c9.625,0,18.758-2.43,26.971-6.752c22.729,5.221,43.525,17.065,59.688,33.884H163.341
	C179.504,191.837,200.3,179.994,223.028,174.772z M422.734,218.992c-0.003,0.129-0.013,0.257-0.013,0.388
	c0,5.772,2.134,11.106,5.73,15.404H71.545c3.598-4.298,5.731-9.632,5.731-15.404c0-0.13-0.009-0.258-0.012-0.388H422.734z
	 M48.526,203.974c10.154,0,18.416,6.911,18.416,15.406c0,8.494-8.262,15.404-18.416,15.404c-10.154,0-18.416-6.91-18.416-15.404
	C30.11,210.885,38.371,203.974,48.526,203.974z M489.664,445.091H10.336V218.992h9.448c-0.002,0.129-0.012,0.257-0.012,0.388
	c0,6.279,2.529,12.039,6.717,16.512c-1.213,0.946-2.006,2.404-2.006,4.061v184.18c0,2.854,2.314,5.168,5.168,5.168h440.697
	c2.854,0,5.168-2.312,5.168-5.168v-184.18c0-1.656-0.794-3.115-2.006-4.061c4.188-4.473,6.717-10.231,6.717-16.512
	c0-0.13-0.009-0.258-0.012-0.388h9.448L489.664,445.091L489.664,445.091z"/>
<path fill="#5A5A5A" d="M186.046,390.826H52.972c-2.854,0-5.168,2.314-5.168,5.168s2.314,5.169,5.168,5.169h133.075
	c2.854,0,5.168-2.314,5.168-5.169C191.214,393.141,188.9,390.826,186.046,390.826z"/>
<path fill="#5A5A5A" d="M52.972,365.748h394.057c2.854,0,5.168-2.314,5.168-5.168s-2.313-5.168-5.168-5.168H52.972
	c-2.854,0-5.168,2.314-5.168,5.168S50.118,365.748,52.972,365.748z"/>
<path fill="#5A5A5A" d="M267.837,328.188l3.452-3.451v20.47c0,2.854,2.314,5.168,5.168,5.168s5.168-2.313,5.168-5.168V312.26
	c0-2.09-1.26-3.975-3.191-4.773c-1.928-0.801-4.154-0.357-5.629,1.119l-12.275,12.274c-2.02,2.019-2.02,5.29,0,7.308
	C262.545,330.205,265.822,330.205,267.837,328.188z"/>
<path fill="#5A5A5A" d="M302.146,350.588c8.916,0,15.9-9.506,15.9-21.641c0-12.137-6.982-21.641-15.9-21.641
	c-8.916,0-15.9,9.504-15.9,21.641C286.246,341.082,293.23,350.588,302.146,350.588z M302.146,317.643
	c2.27,0,5.564,4.402,5.564,11.306c0,6.901-3.296,11.305-5.564,11.305c-2.268,0-5.564-4.403-5.564-11.305
	C296.582,322.045,299.879,317.643,302.146,317.643z"/>
<path fill="#5A5A5A" d="M352.037,350.588c8.916,0,15.899-9.506,15.899-21.641c0-12.137-6.981-21.641-15.899-21.641
	c-8.917,0-15.9,9.504-15.9,21.641C336.137,341.082,343.12,350.588,352.037,350.588z M352.037,317.643
	c2.27,0,5.564,4.402,5.564,11.306c0,6.901-3.296,11.305-5.564,11.305c-2.27,0-5.564-4.403-5.564-11.305
	C346.473,322.045,349.769,317.643,352.037,317.643z"/>
<path fill="#5A5A5A" d="M385.469,350.588c8.916,0,15.9-9.506,15.9-21.641c0-12.137-6.982-21.641-15.9-21.641
	c-8.917,0-15.899,9.504-15.899,21.641C369.568,341.082,376.552,350.588,385.469,350.588z M385.469,317.643
	c2.27,0,5.564,4.402,5.564,11.306c0,6.901-3.296,11.305-5.564,11.305c-2.268,0-5.563-4.403-5.563-11.305
	C379.904,322.045,383.2,317.643,385.469,317.643z"/>
<path fill="#5A5A5A" d="M418.9,350.588c8.916,0,15.899-9.506,15.899-21.641c0-12.137-6.982-21.641-15.899-21.641
	s-15.9,9.504-15.9,21.641C403,341.082,409.983,350.588,418.9,350.588z M418.9,317.643c2.269,0,5.563,4.402,5.563,11.306
	c0,6.901-3.296,11.305-5.563,11.305c-2.269,0-5.564-4.403-5.564-11.305C413.336,322.045,416.632,317.643,418.9,317.643z"/>
<path fill="#5A5A5A" d="M250,160.122c22.75,0,41.258-18.508,41.258-41.258c0-2.854-2.312-5.168-5.168-5.168h-72.179
	c-2.854,0-5.168,2.313-5.168,5.168C208.742,141.612,227.25,160.122,250,160.122z M280.491,124.031
	c-2.468,14.598-15.202,25.754-30.491,25.754c-15.29,0-28.022-11.156-30.491-25.754H280.491z"/>
</svg>
