<?xml version="1.0" encoding="utf-8"?>
<!-- Generator: Adobe Illustrator 16.0.4, SVG Export Plug-In . SVG Version: 6.00 Build 0)  -->
<!DOCTYPE svg PUBLIC "-//W3C//DTD SVG 1.1//EN" "http://www.w3.org/Graphics/SVG/1.1/DTD/svg11.dtd">
<svg version="1.1" id="Layer_1" xmlns="http://www.w3.org/2000/svg" xmlns:xlink="http://www.w3.org/1999/xlink" x="0px" y="0px"
	 width="432.353px" height="500px" viewBox="0 0 432.353 500" enable-background="new 0 0 432.353 500" xml:space="preserve">
<g>
	<path fill="#FFFFFF" d="M423.236,370.671c0,21.28-207.062,125.744-207.062,125.744S9.117,391.951,9.117,370.671V42.115
		c0-21.279,17.248-38.53,38.528-38.53h337.062c21.278,0,38.528,17.251,38.528,38.53V370.671z"/>
	<g>
		<defs>
			<path id="SVGID_1_" d="M216.174,475.955c-81.831-41.636-172.554-92.867-188.808-109.791V42.115
				c0-11.183,9.098-20.279,20.278-20.279h337.062c11.181,0,20.278,9.097,20.278,20.279v324.049
				C388.728,383.093,298.01,434.322,216.174,475.955z"/>
		</defs>
		<clipPath id="SVGID_2_">
			<use xlink:href="#SVGID_1_"  overflow="visible"/>
		</clipPath>
		<rect x="-0.32" y="3.585" clip-path="url(#SVGID_2_)" fill="#78AFDE" width="423.556" height="423.558"/>
	</g>
</g>
<g>
	<g>
		<path fill-rule="evenodd" clip-rule="evenodd" fill="#FFFFFF" d="M169.619,394.851h83.484c-0.708-0.49-12.546-4.069-15.029-5.169
			c0.545-1.036,1.327-2.099,1.829-3.191c0.562-1.216,0.971-2.511,1.188-3.945c0.308-1.971,0.23-7.949-0.508-9.48
			c0.22,2.387-1.863,15.292-3.484,16.208c-0.806-1.323-1.134-6.951-1.161-8.848c-0.058-3.503,0.47-6.104,0.711-9.356
			c-0.165,0.205-0.096,0.078-0.267,0.416c-0.042,0.09-0.142,0.34-0.18,0.443c-1.514,4.112-2.602,8.585-1.385,12.951
			c0.411,1.485,1.222,2.882,1.522,4.072c-1.543-0.448-2.243-1.84-3.141-3.076c-1.807-2.5-6.086-9.802-6.41-12.365
			c-0.185,3.598,2.83,11.925,5.733,13.659c-1.739-0.618-4.697-2.646-6.078-3.688c-3.1-2.354-2.354-1.45-2.367-7.708
			c-0.07-27.568,3.404-51.131,14.366-76.059c1.01-2.294,2.013-4.754,3.131-6.939c1.171-2.286,2.155-4.504,3.298-6.774l5.178-9.872
			c0.328-0.622,0.489-1.164,1.115-1.386c2.069-0.737,9.165-1.561,11.155-1.413c-1.42,0.006-8.069,1.486-9.762,2.523
			c-0.359,0.222-0.113,0.058-0.288,0.21c3.276-0.356,6.696-1.65,10.374-1.355c-4.548,0.697-8.688,1.477-12.63,3.002
			c2.784-0.339,6.575-2.338,12.703-1.958c-0.329,0.151-5.199,0.921-6.256,1.201c-2.024,0.543-3.994,1.171-5.658,1.966
			c0.737,0.018,4.433-0.911,5.743-1.115c1.886-0.295,4.523-0.689,6.411-0.579c-1.994-0.07-8.552,1.829-10.015,2.67
			c4.033-0.554,5.374-1.323,10.089-1.021c-0.76,0.414-4.441,0.798-5.733,1.082c-0.963,0.211-1.839,0.425-2.751,0.657
			c-0.804,0.203-1.679,0.333-2.428,0.698c-0.427,0.208-0.127,0.043-0.324,0.196c4.113-0.268,5.981-1.438,12.045-1.244
			c-1.068,0.465-3.333,0.688-4.594,1.011c-1.395,0.361-3.112,0.812-4.295,1.403c2.284-0.14,4.583-0.855,7.174-0.89
			c-0.508,0.281-1.315,0.328-1.933,0.438l-5.55,1.323c-0.036,0.021-0.083,0.058-0.113,0.074c-0.03,0.021-0.079,0.05-0.116,0.081
			c2.704-0.171,5.063-0.896,8.046-0.896l-0.264,0.138c-1.42,0.555-4.302,0.689-7.877,2.207c2.504-0.299,4.902-1.198,7.813-1.211
			c-0.662,0.447-3.036,0.776-3.885,1.011l-3.662,1.351c3.465-0.449,5.548-1.378,9.536-1.211c-2.713,0.762-8.751,1.26-11.046,2.741
			c1.397-0.153,3.313-0.778,4.814-1.051c1.909-0.341,3.561-0.588,5.574-0.479c-0.787,0.289-3.604,0.648-4.769,0.948
			c-1.338,0.347-3.216,0.862-4.212,1.441c2.295-0.585,5.191-1.387,7.895-1.288c-1.259,0.442-3.479,0.764-4.953,1.205
			c-0.85,0.253-4.264,1.613-4.566,1.61c1.096-0.046,4.005-0.917,5.415-1.222c1.919-0.407,4.136-0.848,6.156-0.816
			c-2.187,0.852-5.707,1.319-8.369,2.407c2.167-0.134,4.73-1.125,7.234-1.157c-1.788,0.755-4.727,1.291-6.883,2.199
			c-0.722,0.302-1.488,0.768-2.03,0.949c1.222-0.227,3.039-1,4.544-1.384c1.541-0.396,3.663-0.869,5.362-0.836
			c-3.472,1.13-8.168,1.805-11.346,3.62c3.17-0.516,6.441-2.338,10.438-2.464l-0.209,0.153c-0.026,0.014-0.077,0.047-0.11,0.064
			c-0.934,0.456-2.776,0.883-3.851,1.305c-1.44,0.562-2.655,1.194-3.919,1.734c2.388-0.407,5.229-2.005,8.076-2.294l-0.209,0.131
			c-0.031,0.017-0.178,0.09-0.222,0.114c-0.178,0.076-0.424,0.151-0.585,0.203c-1.772,0.572-6.306,2.189-7.281,3.149
			c2.837-0.568,6.105-2.562,9.119-2.601c-1.399,0.312-7.211,2.928-8.158,3.657c2.436-0.402,5.267-2.207,8.344-2.273
			c-3.126,1.387-7.437,2.427-10.053,4.747c0.728-0.224,1.498-0.681,2.232-1.006c2.337-1.02,5.149-2.171,7.823-2.07
			c-1.613,0.836-4.083,1.572-5.818,2.366c-1.423,0.659-4.649,1.984-5.354,2.904c3.126-0.799,7.264-3.62,11.498-3.835
			c-2.869,1.454-6.525,4.736-7.914,7.252c0.664-0.367,2.497-2.318,3.452-3.082c0.803-0.644,2.812-2.099,4.095-2.288
			c-2.034,0.982-6.782,5.269-7.508,7.041c1.866-1.484,4.491-4.407,6.684-5.133c-0.234,0.387-0.062,0.164-0.392,0.464l-3.114,2.936
			c-1.156,1.224-2.137,2.285-3.158,3.712c0.867-1.088,4.686-4.467,6.628-5.053c-0.98,1.11-2.625,2.057-3.725,3.253l-3.336,3.465
			c0.272-0.65,5.666-4.754,7.17-5.296c-1.324,1.093-4.907,4.408-5.596,5.912c0.472-0.242,0.283-0.129,0.661-0.529
			c1.124-1.184,2.669-2.936,4.259-3.449c-0.49,0.929-3.165,2.426-4.093,4.867c0.553-0.36,1.388-1.444,2.024-2.014
			c0.538-0.481,1.546-1.37,2.286-1.701c-0.977,1.234-3.48,3.577-4.038,5.778l0.965-1.141c0.891-1.11,1.803-2.18,3.05-2.911
			c-1.117,1.218-3.747,4.087-4.047,6.394c0.112-1.162,2.656-4.434,3.298-4.866c-0.814,1.523-1.585,2.586-2.339,4.446
			c-0.532,1.295-1.373,3.877-1.423,5.259c0.324-1.81,2.69-6.384,3.58-7.692c-1.096,3.629-1.69,4.632-1.449,9.114
			c0.349-1.693,0.51-7.704,2.583-8.495c1.452,1.406,1.332,4.228,1.427,6.574c0.65-1.941-0.041-5.911,0.229-8.044
			c-0.094,0.534,0.582,2.739,0.699,3.603l0.155,0.945c0.014,0.043,0.03,0.087,0.044,0.127l0.11,0.247
			c0-2.842-1.076-6.58-1.059-7.884c1.722,2.351,1.841,4.346,2.07,7.749c-0.085-0.28-0.067-3.947-0.205-4.928
			c-0.242-1.729-0.784-3.01-1.036-4.508c1.416,1.172,1.228,3.779,2.058,5.209c0.022-3.248-0.975-4.67-1.503-7.295
			c0.943,1.425,1.502,3.452,2.098,5.211c-0.012-2.622-1.365-5.449-1.915-7.652l1.646,3.231c-0.214-1.686-0.979-3.213-1.491-4.633
			c0.883,0.815,2.22,2.887,2.344,4.53c0.043-1.913-1.245-4.304-2.067-5.484c0.773,0.52,0.82,0.585,1.295,1.27
			c0.313,0.453,0.809,1.055,0.925,1.557c-0.185-1.565-1.374-2.915-2.063-3.912c0.687,0.375,1.5,1.03,1.918,1.62
			c-0.473-1.162-1.645-2.101-1.88-2.64c0.951,0.479,1.087,0.579,1.752,1.262c-0.381-1.054-0.93-1.238-1.556-2.122
			c0.732,0.234,1.35,0.685,1.684,1.158c-0.204-0.956-1.112-1.548-1.553-2.264c0.702,0.191,1.724,0.812,2.022,1.321
			c-0.305-1.15-1.421-1.666-1.978-2.385c1.183,0.345,2.089,1.358,2.774,1.957c-0.229-0.637-0.697-1.195-1.094-1.626
			c-0.457-0.497-1.16-0.915-1.554-1.441c0.925,0.205,1.627,0.77,2.166,1.233c-0.535-1.025-1.248-1.213-1.847-2.019
			c1.051,0.287,1.531,1.01,2.328,1.451c-0.361-0.732-2.177-2.44-2.841-2.746c1.736,0.56,1.797,1.134,2.968,1.897
			c-0.683-1.455-1.772-1.774-2.694-2.841c0.985,0.351,1.594,1.031,2.338,1.322c-0.482-0.807-1.303-1.153-1.803-1.913
			c0.921,0.202,1.287,0.704,2.104,1.011c-0.341-0.681-2.104-2.073-2.951-2.591c1.071,0.285,1.543,0.775,2.269,1.273
			c-0.429-0.956-1.294-1.348-1.733-2.143c1.31,0.427,1.922,1.556,2.865,2.042c-0.426-1.102-2.562-3.534-3.644-3.951
			c1.314,0.113,2.432,1.352,3.285,1.886c-0.35-0.977-2.542-3.357-3.324-3.748c1.262,0.485,1.924,1.02,2.785,1.695
			c-0.198-0.17-0.876-1.137-1.158-1.451c-0.26-0.28-0.427-0.435-0.717-0.676c-0.428-0.364-0.453-0.283-0.719-0.768
			c1.647,0.327,2.248,1.335,3.314,1.938c-0.253-0.592-0.9-1.102-1.321-1.521c-0.488-0.491-1.094-0.809-1.521-1.354
			c0.833,0.191,3.846,1.673,4.021,2.614l0.528-0.723c0.246-0.133,0.03,0.042,0.354-0.26c1.772-1.646,3.187-3.61,5.607-4.462
			c-1.044,0.322-4.131,3.912-4.667,5.137c1.183-1.563,4.256-4.369,6.139-5.517c-1.593,1.934-4.914,4.54-5.897,6.811
			c0.583-0.383,1.737-1.787,2.407-2.413c0.638-0.596,1.868-1.702,2.789-2.104c-0.711,1.131-2.249,2.171-2.888,3.625
			c0.665-0.372,1.48-1.538,2.108-2.151c0.655-0.644,1.432-1.333,2.211-1.867c-1.166,1.157-3.924,4.797-4.549,6.592
			c1.845-2.231,3.292-4.332,5.789-5.812c-1.503,1.191-5.458,5.946-6.441,7.999c2.104-2.039,4.669-5.825,7.284-7.142
			c-0.563,0.996-3.489,3.62-4.784,6.498c1.034-1.319,4.264-5.457,5.393-6.071c0,0.008-4.688,6.468-5.796,8.634
			c0.147-1.144,6.369-7.917,7.497-8.827c-1.576,2.386-4.383,5.062-5.29,7.896l0.758-0.866c0.238-0.344,0.432-0.584,0.663-0.885
			c0.441-0.571,0.909-1.204,1.392-1.708c0.954-1,2.02-2.437,3.241-3.134c-0.629,1.332-4.285,5.285-5.395,8.388
			c2.11-2.831,3.457-4.843,6.297-7.041c-0.789,1.289-2.42,3.048-3.503,4.752c-0.838,1.323-2.457,3.891-2.934,5.383
			c1.485-2.145,3.976-6.232,6.541-7.208c-0.649,2.989-2.085,5.423-2.046,8.799c0.361-0.689,0.906-2.787,1.227-3.717
			c0.398-1.163,1.188-2.475,1.469-3.351c-0.259,2.347-1.745,4.523-1.643,7.684c0.349-0.676,0.663-2.458,0.932-3.27
			c0.262-0.805,0.572-1.806,1.094-2.48l0.349-0.358c-0.296,1.293-0.776,2.446-1.045,3.835c-0.253,1.311-0.479,3.036-0.362,4.413
			c0.411-0.929,0.778-3.082,1.224-4.3c0.461-1.26,1.245-2.551,1.79-3.678c-0.451,2.453-1.932,5.14-2.146,8.185
			c0.089-0.138,0.051-0.038,0.18-0.324c0.914-2.006,1.23-4.503,2.636-6.243c-0.645,2.598-2.215,6.058-1.605,8.981
			c0.331-0.963,0.547-2.886,0.882-4.112c0.322-1.17,0.793-2.742,1.493-3.471c-0.463,2.305-1.359,3.867-1.085,6.716
			c0.219-0.397,0.785-3.557,1.666-5.565c-0.131,2.189-1.147,5.378-0.258,7.647c0.149-0.5,0.185-2.497,0.333-3.323
			c0.219-1.182,0.571-1.931,0.844-2.92c-0.062,1.24-0.451,2.491-0.486,3.978c-0.025,1.044,0.467,3.832,0.445,3.959
			c0.053-2.331-0.445-3.632,0.2-6.231c0.64,5.509-0.159,4.607,2.021,10.328c-0.299-2.489-1.18-4.719-1.062-7.648l0.398,1.084
			c0.109,0.455,0.216,0.809,0.349,1.222c0.683,2.075,1.86,4.188,3.129,5.779c-2.437-5.591-1.771-4.34-2.996-10.259
			c-1.587-7.678-4.267-15.042-8.514-21.428c-0.778-1.17-0.341-1.114,0.215-2.411c0.521-1.224,1.31-3.734,1.306-5.193
			c0.445,2.648-0.441,4.135-0.852,6.326c0.271-0.286,0.242-0.253,0.444-0.688l0.893-2.514c0.181-0.681,0.589-3.494,0.694-3.703
			c1.055,3.095-0.497,5.964-1.082,8.708c1.72-2.087,1.931-5.552,2.24-8.143c0.455,4.024-0.152,3.579-0.738,6.981
			c0.405-0.38,0.575-0.974,0.753-1.517c0.559-1.682,0.608-3.675,1.085-5.329c0.545,4.18-0.226,5.678-0.571,9.286
			c1.091-1.409,1.752-6.479,1.94-8.715c0.936,3.634-0.559,7.893-0.907,10.815c1.279-3.122,1.796-5.264,2.515-8.896
			c0.155,3.822-0.688,5.513-1.206,8.795c1.009-1.105,2.47-6.292,2.567-8.293c0.494,3.179-0.758,6.183-1.148,9.07
			c1.461-1.893,1.698-5.886,2.551-8.321c0.481,3.252,0.018,5.847-0.075,8.966c0.954-1.671,0.958-6.876,1.672-8.57
			c0.316,4.142-0.265,6.221-0.597,9.976c1.44-1.95,1.391-6.551,1.772-9.281c0.823,4.027,0.657,5.526,0.262,9.424
			c1.661-2.071,1.011-6.056,1.265-8.815c0.899,3.475,0.641,6.007,0.562,9.615l0.329-0.834c0.648-2.593,0.146-6.822,0.265-7.262
			c1.56,5.487,0.863,4.401,1.363,9.229c0.013-1.15,0.445-2.66,0.412-4.271c-0.04-1.637-0.396-3.046-0.444-4.481
			c0.376,1.064,0.771,2.264,1.085,3.514l0.929,4.01c0-2.442-0.42-3.637-0.929-5.674c2.153,2.578,1.909,6.428,2.893,8.447
			c0.121-4.388-1.127-4.639-1.695-7.587c0.246,0.213,0.101,0.059,0.321,0.351c2.091,2.752,2.247,6.314,2.682,7.738
			c0.882-7.388-6.219-15.422-11.324-19.41c-4.197-3.277-9.944-6.031-15.125-8.135c-6.479-2.63-5.188-0.946-5.932-4.283
			c-0.163-0.734-0.414-1.296-0.559-1.978c0.649,0.501,1.089,1.753,1.305,2.593c0.219-0.927,0.05-1.071-0.022-1.889
			c0.472,0.616,0.782,1.401,0.946,2.188l0.251,0.893c0.426-1.044-0.014-2.28-0.153-3.316c0.65,0.729,0.551,1.403,0.921,2.228
			c0.054-1.164-0.138-1.386-0.342-2.415c0.936,0.565,1.28,2.129,1.499,3.11c0.163-1.672-0.265-1.991-0.469-3.292
			c1.264,2.66,0.703,1.907,1.468,3.96c0.066-1.923-0.4-2.494-0.755-4.056c0.988,0.65,0.906,1.735,1.385,2.851
			c0.067-1.61-0.389-2.452-0.828-3.68c0.935,0.759,1.626,3.1,1.857,4.55c0.138-2.021-0.473-2.817-0.825-4.426
			c1.316,0.589,1.246,1.462,1.639,2.733c0.115-1.959-0.381-2.002-0.771-3.442c0.541,0.42,0.865,1.095,1.153,1.726
			c0.309,0.677,0.472,1.352,0.692,2.062c0.013-1.711-0.638-2.694-1.054-4.095c1.803,1.036,1.611,3.632,2.286,5.46
			c0.063-2.72-0.631-3.701-1.162-5.842c1.062,1.438,1.294,2.534,1.796,4.445c0.045-2.406-0.807-3.496-1.351-5.414
			c1.229,0.883,1.925,2.995,2.33,4.489c0.188,0.706-0.081,0.205,0.315,0.844c-0.083-2.318-0.797-3.287-1.396-5.04
			c1.217,0.89,1.522,3.262,2.002,4.768c0.446-1.151-1.164-4.377-1.514-5.529c1.713,1.709,2.187,4.538,3.245,5.911
			c-0.153-2.309-1.348-4.182-1.991-6.028c1.601,2.276,2.543,3.988,3.477,7.077c-0.014-2.253-1.173-4.427-1.639-6.355
			c1.299,1.846,1.723,3.876,2.567,6.093c0.073-2.517-0.966-4.087-1.349-6.089c1.481,1.492,1.671,4.223,2.505,5.323
			c-0.044-2.061-1.01-4.011-1.537-5.797c1.364,1.18,2.468,4.204,3.507,5.742c-0.284-1.951-1.878-4.409-2.279-6.147
			c0.647,0.92,1.357,2.059,1.918,3.136c0.573,1.101,1.062,2.552,1.606,3.487c-0.004-2.647-1.683-4.533-2.424-6.606
			c1.246,1.469,3.012,3.23,3.667,5.604c0.708-1.292-1.921-4.882-2.424-5.78c0.985,0.898,4.02,4.767,4.373,6.599
			c-0.152-1.114-0.622-2.146-1.114-3.123c-0.495-0.982-1.247-1.841-1.714-2.759c0.73,0.436,4.104,4.088,4.223,5.21
			c-0.079-1.729-2.391-4.474-3.285-5.606c1.687,1.186,3.172,2.732,4.414,4.393c-0.232-0.552-0.746-1.244-1.111-1.729
			c-0.238-0.308-0.365-0.503-0.638-0.767c-0.488-0.472-0.484-0.317-0.762-0.899c1.09,0.396,4.459,3.254,4.794,4.29
			c-0.716-2.359-2.982-2.984-3.981-4.424c1.812,0.475,3.799,2.722,4.814,3.732c-0.581-1.445-2.41-3.076-3.627-3.937
			c-1.411-0.998-3.294-1.964-5.136-2.624c-8.396-3.014-18.415-1.209-26.937,0.623c-1.681,0.359-11.774,2.912-12.641,2.521
			c-1.533-0.695-3.28-1.871-4.874-2.719c-1.744-0.926-3.395-1.748-5.216-2.544c-3.718-1.632-7.423-2.964-11.765-3.744
			c-6.817-1.224-14.019-0.635-20.604,1.351c-1.048,0.314-1.922,0.639-2.983,0.89c-0.956,0.229-2.554,0.188-3.315,0.53
			c2.821,0.219,3.751,0.018,6.207-0.503c-2.511,1.147-2.992,1.109-5.238,1.926c2.595,0.06,4.848-1.107,6.777-1.946
			c-0.653,0.503-2.451,1.893-3.444,1.893c1.555-0.013,3.239-1.459,4.271-2.04c-0.488,0.715-2.147,1.937-3.081,2.369
			c1.925-0.438,3.361-1.626,4.598-2.523c-0.759,1.104-1.931,1.791-2.794,2.729c1.722-0.555,2.581-1.82,3.847-2.77
			c-0.474,0.783-1.08,1.526-1.734,2.073c-0.612,0.515-1.564,1.203-2.083,1.758c1.772-0.641,3.945-2.656,4.936-3.806
			c-0.654,1.27-2.568,3.324-3.491,4.1c1.748-1.075,3.075-2.801,4.681-4.103c-1.485,2.284-2.795,2.939-3.661,4.184
			c1.413-0.426,3.943-2.747,4.607-3.544c-0.746,1.636-2.071,2.477-3.177,3.632c1.649-0.698,2.775-2.414,4.009-3.217
			c-0.796,1.388-2.337,2.313-3.112,3.551c1.414-0.611,3.89-3.054,4.769-4.108c0.129,2.483-1.679,4.79-2.376,6.535l2.204-3.26
			c0.568-0.961,1.374-2.957,1.942-3.661c-0.12,1.899-1.147,3.207-1.594,4.728c0.854-0.651,2.817-4.623,2.895-5.251
			c0.033,1.909-1.726,4.648-2.237,6.261c1.36-1.551,1.997-3.835,3.083-5.276c-0.312,1.873-1.589,3.688-2.019,5.337
			c0.511-0.435,0.897-1.324,1.23-1.936l1.163-2.057c-0.248,1.487-1.252,3.089-1.702,4.373c0.443-0.775,2.681-4.507,2.477-5.447
			c0.167,2.07-1.474,5.106-1.918,6.925c1.356-1.537,1.591-3.997,2.645-5.656c-0.12,1.893-1.047,3.042-1.408,4.522
			c1.028-0.972,1.452-2.779,2.293-4.028l-1.036,3.573c0.262-0.33,0.413-0.661,0.595-1.105l0.434-0.996
			c0.195-0.287,0.036-0.107,0.276-0.321c-0.124,1.705-0.836,2.861-1.124,4.264c0.96-1.578,1.819-4.01,2.396-6.018
			c-0.012,1.732-0.834,3.259-1.064,4.802c0.178-0.173,0.067,0.006,0.295-0.366c0.57-0.923,0.975-2.291,1.047-3.329
			c0.205,2.063-0.649,3.389-0.981,5.074c1.121-1.467,1.368-3.878,2.143-5.433c0,2.117-0.742,3.428-1.207,5.125
			c1.069-1.244,1.149-2.18,1.817-3.71c0.029,1.288-0.406,1.837-0.571,2.907c0.731-1.134,0.981-2.963,1.39-3.596
			c-0.034,1.757-0.525,3.502-0.912,5.044c-6.034,0.725-11.883,2.998-15.805,7.164c-0.786,0.832-2.639,3.215-2.808,4.868
			c0.759-1.753,2.18-3.532,3.467-4.417c-0.71,1.03-2.152,2.555-2.45,4.165c1.14-1.1,1.647-3.333,3.152-4.208
			c-0.413,0.875-1.072,1.698-1.28,2.818c0.883-0.917,1.337-2.732,2.35-3.602c-0.398,1.576-1.4,2.741-1.383,4.821
			c0.362-0.708,0.708-1.953,1.093-2.767c0.464-0.987,0.979-1.699,1.49-2.476c-0.334,1.148-1.648,4.227-1.204,5.63
			c0.336-1.084,0.441-2.226,0.864-3.41c0.221-0.614,1.038-2.537,1.394-2.848c-0.562,2.104-1.251,3.14-0.927,5.811
			c0.388-2.319,1.043-4.323,2.043-5.999c-0.258,2.25-0.975,3.51-0.666,6.183c0.522-1.855,0.645-4.758,1.62-6.216l-0.678,5.363
			c0.866-1.572,0.713-4.005,1.792-5.35c0.012,0.962-0.139,1.953-0.159,2.974c-0.017,1.041,0.214,2.188,0.218,2.884
			c0.096-2.112,0.261-4.373,0.968-6.135c0.021,1.943-0.468,3.854,0.149,5.758c0.082-1.688,0.056-4.028,0.814-5.313l-0.178,4.688
			c0.521-0.762,0.484-2.327,0.732-3.362c0.221-0.951,0.836-2.328,0.931-2.946c-0.014,1.585-0.546,3.126-0.465,5.14
			c0.029-0.043,0.063-0.158,0.073-0.135c0.014,0.026,0.058-0.094,0.069-0.131c0.516-1.271,0.452-2.718,1.026-4.005
			c0.016-0.038,0.035-0.077,0.051-0.11l0.278-0.412c-0.088,1.374-0.502,3.208-0.074,4.519c0.023-0.666,0.014-1.332,0.063-1.997
			l0.2-1.201c0.195-0.424,0.05-0.188,0.298-0.432c-0.034,0.607-0.111,1.187-0.125,1.797c-0.012,0.548-0.021,1.305,0.244,1.77
			c0.031-1.325,0.09-2.533,0.52-3.722c0.346-0.963,0.11-0.531,0.552-1.057c-0.158,1.585-0.449,3.278-0.045,4.848
			c0.116-1.356,0.035-2.901,0.553-3.59c-0.023,1.162-0.207,2.46,0.234,3.549c0.016,0.037,0.035,0.094,0.063,0.134
			c0.002-1.724-0.121-3.155,0.859-4.231l-0.027,2.16c0.361-0.702,0.405-1.605,0.839-2.217c-0.193,1.521-0.471,2.203,0.1,3.59
			c-0.089-0.624-0.203-0.966-0.062-1.668c0.033-0.168,0.191-0.588,0.246-0.681c0.332-0.537,0.049-0.236,0.54-0.492
			c-0.087,1.279-0.211,2.391,0.212,3.453c0.001-0.958-0.101-2.1,0.289-3.018l0.181-0.326c0.014-0.023,0.045-0.07,0.069-0.107
			l0.114,2.188c0.198-0.672,0.193-1.512,0.663-2.014c-0.062,1.432-0.178,2.516,0.246,3.778c0.013-0.585-0.025-1.146,0-1.731
			c0.027-0.562,0.072-1.163,0.371-1.618c-0.002,0.942,0.05,1.666,0.371,2.344c-0.001-0.94-0.113-2.17,0.567-2.939l0.174,2.338
			l0.315-2.584c0.133,0.862,0.063,1.713,0.331,2.548l0.418,0.748c-0.12-1.397-0.089-1.598,0.158-2.886
			c0.289,0.562,0.069,0.832,0.523,1.394c0-0.969,0.201-1.825,0.51-2.558c0.014,3.269,0.451,3.214-0.875,4.008
			c-3.09,1.857-7.308,5.15-9.879,7.498c-4.938,4.498-9.841,11.112-10.048,18.387c-0.014,0.515-0.006,1.029,0.045,1.544
			c0.047,0.473,0.071,1.023,0.331,1.438c0.036-1.648-0.013-5.001,1.077-6.452c-0.059,1.196-0.348,2.229-0.377,3.47
			c-0.041,1.504,0.348,2.274,0.439,3.37c0.068-1.278-0.122-2.578-0.029-3.958l0.738-3.484c-0.037,1.492-0.133,3.363,0.436,4.541
			c0.011-1.585-0.262-5.283,0.181-6.601c0.357,1.116,0.301,3.705,0.969,5.636c0.179,0.504,0.557,1.098,0.652,1.516
			c-0.421-3.515-1.056-3.58-0.601-8.114c0.064,2.287,0.979,5.649,2.049,7.099c-0.602-2.454-1.686-5.253-1.301-8.322
			c0.257,2.622,1.113,5.268,2.654,7.185c-0.945-2.075-1.754-5.056-1.578-7.807c0.977,2.819,1.47,5.21,3.174,7.226
			c-0.823-2.625-2.123-5.487-2.39-8.365c0.542,1.577,2.216,5.957,3.018,7.025c-0.455-2.008-1.771-4.996-1.671-7.31
			c1.468,2.327,0.903,2.555,3.671,6.427c-0.856-2.24-2.464-4.607-2.703-7.214c0.684,1.315,2.021,4.909,3.409,5.771
			c-0.63-2.099-2.311-4.606-2.439-6.931c-0.026,1.001,1.893,4.267,2.586,5.437c0.091,0.155,0.129,0.242,0.254,0.386
			c0.274,0.313,0.072,0.129,0.388,0.345c-0.654-2.433-1.83-3.866-2.105-6.948c0.627,0.707,1.645,4.273,3.263,6.242
			c-0.913-2.442-2.065-4.442-2.312-7.642l0.352,0.658c0.562,1.383,1.013,3.076,2.062,4.154l0.19,0.171
			c0.021,0.019,0.069,0.061,0.102,0.083c-0.632-1.682-1.815-2.754-1.746-5.139c0.799,2.026,1.678,4.681,3.466,6.139
			c-1.012-1.229-2.843-4.638-2.689-7.066c1.249,1.955,0.771,2.626,3.052,5.371c-0.609-1.452-1.919-3.025-1.938-5.065
			c1.341,3.746,3.791,5.61,4.052,6.252c-1.031-1.311-3.165-4.158-2.972-6.727c0.664,0.682,1.205,3.229,2.506,4.284
			c-0.761-1.234-1.553-2.82-1.644-4.805c0.513,0.707,0.606,1.641,1.078,2.406c0.496,0.8,0.918,1.063,1.63,1.576
			c-0.724-0.164-1.979-2.244-1.442-3.842c0.648,0.621,1.246,2.777,2.608,3.928c-0.408-0.806-2.213-3.402-1.683-4.527
			c0.271,0.9,0.89,2.427,1.739,2.899c-0.378-1.085-1.021-1.759-0.873-3.24c0.323,1.543,1.819,2.905,2.401,4.11l-8.721,15.327
			c-2.699,5.271-5.479,10.558-7.892,16.132c-4.774,11.024-9.234,22.609-12.096,34.421c-0.11,0.443-0.221,0.876-0.498,1.201
			c-0.12-10.452-0.505-18.445-2.502-28.693c-2.821-14.489-7.772-27.554-14.159-40.455c-3.82-7.722-8.135-15.271-12.509-22.697
			c-0.441-0.752-1.188-1.772-1.468-2.532c1.058-1.393,2.247-2.873,2.95-4.624c0.035-0.09,0.145-0.376,0.187-0.446
			c0.236-0.425,0.08-0.19,0.317-0.432c0.017,2.314-1.138,3.952-2.032,5.291c1.119-1.05,2.718-2.877,3.165-5.006
			c0.977,1.293-1.923,5.387-2.311,6.335c1.128-0.64,2.264-2.741,2.879-4.013c0.243-0.508,0.398-1.092,0.709-1.585
			c0.53,0.787,0.302,2.288-0.08,3.158c-0.459,1.032-0.946,1.392-1.608,2.2c2.521-1.574,2.41-3.14,3.31-5.13l0.28-0.474
			c-0.047,3.135-1.311,4.565-2.206,6.738c1.511-1.236,2.411-3.961,3.341-6.151c0.902,3.651-2.441,6.791-3.947,9.528
			c1.044-0.922,2.241-2.453,3.131-3.795c1.113-1.684,1.932-3.96,2.437-4.709c-0.013,1.325-0.648,2.88-1.149,3.988
			c-0.552,1.22-1.361,2.285-1.775,3.292c0.832-0.772,1.912-2.421,2.625-3.693c0.818-1.454,1.223-3.07,1.922-4.469
			c0.187,4.346-2.453,8.31-4.189,10.743c0.379-0.612,1.181-1.276,1.669-1.909c0.548-0.71,1.006-1.373,1.505-2.216
			c1.21-2.047,1.387-3.438,2.159-5.438c0.067,3.911-2.019,6.353-3.329,8.814c1.226-1.271,1.804-2.159,2.727-3.979
			c0.412-0.81,1.799-4.035,1.933-4.73c0.094,2.287-1.257,6.459-2.18,8.669c-0.344,0.829-0.916,1.806-1.167,2.611
			c0.031-0.028,0.078-0.11,0.091-0.085c0.014,0.028,0.069-0.063,0.088-0.083c1.11-1.187,1.865-2.966,2.563-4.445
			c0.816-1.72,1.308-3.67,2.062-5.347c-0.025,2.861-1.299,6.625-2.427,9.167c-0.391,0.88-1.043,1.969-1.287,2.803
			c0.619-0.49,1.05-1.355,1.447-2.015c0.482-0.791,0.827-1.39,1.235-2.18l2.315-4.714c-0.471,3.43-2.524,6.881-3.864,9.796
			c1.845-1.484,4.838-7.044,5.483-9.417c-0.298,4.241-3.493,9.26-3.955,10.654c0.858-0.801,2.223-2.996,2.871-4.245
			c0.429-0.83,0.79-1.519,1.188-2.382c0.397-0.858,0.681-1.898,1.229-2.533c-0.002,1.487-0.57,3.886-0.926,5.314
			c-0.391,1.583-1.236,3.605-1.47,4.981c0.961-0.881,4.146-9.367,4.31-10.069c-0.072,1.461-1.028,4.976-1.455,6.457
			c-0.301,1.045-0.632,2.055-1,3.057c-0.367,1.005-0.855,1.92-1.147,2.816c2.318-2.501,3.261-6.344,4.316-9.594
			c0.054-0.17,0.064-0.209,0.134-0.357c0.168-0.34,0.068-0.145,0.201-0.312c0.054,1.796-0.273,4.416-0.64,6.145
			c-0.444,2.094-1.12,3.197-1.661,4.852c1.053-1.636,1.866-2.478,2.568-4.597c0.655-1.979,0.859-3.824,1.344-5.831
			c0.157,1.826-0.135,4.365-0.441,6.135c-0.16,0.942-0.368,1.882-0.618,2.784c-0.241,0.877-0.646,1.854-0.804,2.723
			c0.038-0.033,0.085-0.125,0.098-0.098l0.515-0.813c0.843-1.775,1.439-3.677,1.782-5.608c0.087-0.481,0.153-0.963,0.2-1.451
			c0.079-0.889-0.047-0.705,0.262-1.306c0.124,1.975,0.206,3.8,0.035,5.825c-0.162,1.912-0.794,3.729-0.914,5.196
			c0.531-1.438,1.239-2.922,1.577-4.515c0.396-1.854,0.588-3.783,0.705-5.7c0.832,2.238,0.117,7.784,0.188,10.401
			c0.715-3.143,0.744-4.627,0.611-8.025c1.236,2.196,1.329,6.874,1.134,9.582l0.059,1.351c0.266-1.865,0.63-2.93,0.509-5.053
			c-0.087-1.538-0.641-3.565-0.565-4.902c0.071,0.362,0.528,1.399,0.688,1.943c0.23,0.779,0.415,1.52,0.546,2.236
			c0.35,1.941,0.33,3.296,0.29,5.343l0.398-0.766c0.047-0.208,0.084-0.731,0.104-0.954c0.802-8.467-4.033-17.137-8.975-23.181
			c-2.55-3.122-5.533-5.801-8.705-8.357c-3.122-2.516-6.522-5.114-10.007-7.189c0.744-2.562,0.816-1.738,0.899-4.834
			c0.492,0.774,0.421,2.1,0.458,3.162c0.264-0.393,0.322-0.929,0.341-1.423c0.028-0.591-0.029-1.177-0.053-1.768
			c0.207,0.196,0.094,0.009,0.317,0.403l0.502,1.665c0.137,0.734-0.124,1.682,0.145,2.387c0.515-2.069,0.249-2.32,0.396-4.346
			c0.107,0.8,0.426,1.584,0.519,2.581c0.104,1.115,0.014,2.136,0.054,3.239c0.682-2.026,0.338-3.591,0.294-5.7
			c0.93,1.17,0.809,2.624,0.803,4.329c0.749-1.588,0.274-3.379,0.173-5.101c1.172,2.551,0.797,3.389,0.917,6.308
			c0.665-2.427,0.207-3.491,0.324-5.787c1.287,1.54,1.251,2.098,1.046,4.123c1.043-1.599,0.218-3.565,0.017-5.276
			c0.426,0.633,0.72,1.505,0.949,2.413c0.248,0.971,0.166,2.265,0.512,3.03c0.168-2.217-0.089-3.153-0.228-5.135
			c2.128,2.015,0.681,6.37,1.188,7.616c0.425-3.217,0.605-4.003,0.326-7.51c1.169,1.537,0.7,4.539,0.878,6.639
			c-0.051-0.415,0.352-2.937,0.347-3.965c-0.01-1.484-0.371-2.748-0.397-3.978c1.739,2.644,1.407,5.269,1.407,8.62
			c1.054-3.116,0.237-5.495-0.14-8.315c1.438,2.872,1.083,3.948,1.213,7.402c0.81-2.576-0.013-5.127-0.187-7.661
			c1.202,1.77,1.969,6.718,2.062,9.388c0.773-2.831-0.273-6.312-0.49-9.009c1.32,2.122,1.704,6.315,2.103,9.021
			c0.094-0.146,0.081-0.079,0.151-0.367c0.036-0.169,0.05-0.264,0.066-0.438l-0.021-3.272c-0.066-1.237-0.297-2.602-0.28-3.831
			c0.352,1.217,0.688,2.754,0.914,4.146c0.27,1.658,0.169,3.172,0.374,4.746c0.144-1.483,0.428-2.593,0.42-4.278
			c-0.003-1.583-0.26-3.046-0.304-4.526c1.062,2.58,1.214,5.729,1.411,8.846c0.335-1.024,0.345-2.782,0.332-4.008
			c-0.011-0.737-0.457-3.698-0.052-4.273c0.281,1.186,0.947,2.704,1.308,4.015c0.34,1.229,0.625,3.33,0.979,4.282
			c0.073-3.298-0.955-6.321-1.005-9.104c0.115,0.616,0.497,1.512,0.694,2.153c0.264,0.866,0.451,1.491,0.686,2.399
			c0.284,1.091,0.762,4.648,1.04,5.213c0.49-3.794-0.575-5.764-1.04-9.023c1.356,2.027,2.718,5.901,2.955,8.92
			c0.267-1.684,0.22-3.037-0.131-4.667c-0.301-1.405-0.956-2.741-1.162-3.952c2.162,2.649,2.727,7.717,3.262,8.715
			c0.101-3.502-1.01-5.357-1.967-8.038c0.606,1.045,1.378,2.025,2.041,3.279c0.529,1.006,1.395,2.831,1.587,4.062
			c0.576-0.783-0.377-2.987-0.661-3.759c-0.432-1.189-1.08-2.272-1.423-3.279c1.497,2.033,3.373,4.728,4.224,7.195
			c-0.26-2.171-1.691-3.902-2.443-5.576c1.327,0.748,4.25,5.185,4.919,7.133c-0.312-2.992-2.775-5.204-3.916-7.042
			c1.661,1.092,2.827,2.634,3.869,4.251l0.78,1.396c0.021,0.031,0.047,0.067,0.069,0.102c0.129,0.18,0.116,0.159,0.235,0.282
			c-0.58-4.809-8.015-10.34-11.994-12.421c-2.611-1.363-5.788-2.526-9.014-3.269c-1.318-0.3-1.037-0.241-1.461-1.462
			c-0.828-2.389-1.853-4.939-1.495-7.596c-0.412,1.27,1.912,5.89,2.479,6.847c-0.663-2.566-2.298-5.911-2.194-8.9
			c-0.105,1.416,2.675,8.298,3.49,9.251c-0.141-0.942-0.737-2.316-1.042-3.33c-0.348-1.156-0.643-2.414-0.699-3.734
			c0.11,0.159,0.02-0.047,0.198,0.345c0.852,1.848,0.457,1.953,2.261,5.153c-0.664-2.091-1.879-4.449-2.074-6.815
			c0.611,1.825,1.436,3.482,2.406,5.142c0.164,0.281,0.301,0.521,0.463,0.772l0.694,0.812c-0.339-1.311-2.755-6.043-2.218-7.413
			c0.833,2.88,2.632,7.574,4.166,9.521c-0.691-2.777-3.299-7.457-3.151-10.521c0.283,1.688,2.561,6.603,3.483,7.451
			c-0.622-2.234-2.387-4.634-2.678-7.047c0.505,0.512,1.935,3.788,2.282,4.468c0.777,1.517,1.709,2.906,2.507,4.225
			c-1.166-2.973-3.66-6.938-4.104-10.204c0.612,0.97,1.44,3.08,2.066,4.267c0.574,1.09,1.824,3.369,2.584,3.979
			c-0.663-2.527-3.03-5.59-3.249-8.847c0.864,1.64,1.527,3.288,2.47,4.927l2.879,4.475c-0.593-1.335-1.455-2.661-2.168-4.26
			c-0.552-1.242-1.325-3.516-1.473-5.037c0.515,0.759,0.908,1.955,1.34,2.846c1.418,2.929,3.137,5.235,4.935,7.849
			c-1.371-3.092-3.511-5.756-3.644-9.575c0.624,0.408,2.464,2.608,3.227,3.261c0.806,0.688,2.765,2.353,3.871,2.778
			c-0.674-0.897-1.739-1.786-2.629-2.624c-0.484-0.459-1.989-2.229-2.306-2.917c1.627,1.293,4.054,4.293,6.429,5.18
			c-1.157-0.663-4.353-3.838-4.792-5.121c0.639,0.353,1.188,1.021,1.605,1.456c0.428,0.449,1.145,1.004,1.688,1.415
			c0.658,0.502,2.936,2.086,3.798,2.243c-1.357-0.519-5.22-4.781-5.82-6.198c1.749,1.025,3.638,4.075,5.958,5.23
			c-0.467-0.964-1.954-2.095-2.686-2.989c-0.843-1.025-1.671-1.947-2.246-3.17c0.585,1.65,5.918,5.762,7.679,6.268
			c-1.176-1.403-4.528-3.149-5.616-5.6c0.702,0.419,1.565,1.497,2.396,2.146c0.683,0.535,2.03,1.554,2.978,1.796
			c-0.444-0.721-1.418-1.301-2.03-1.81c-0.594-0.488-1.398-1.237-1.785-1.956c1.891,1.066,3.688,2.979,6.124,3.426
			c-0.331-0.374-0.812-0.594-1.226-0.861c-1.316-0.837-2.342-1.92-3.408-2.982c1.231,1.011,4.105,3.17,6.286,3.484
			c-1.421-0.867-3.403-1.428-4.354-2.62c0.678,0.209,1.448,0.684,2.144,0.989c0.758,0.327,1.449,0.586,2.263,0.832
			c1.578,0.478,3.643,0.979,5.356,0.945c-2.248-0.863-5.699-1.389-7.56-2.752c1.245,0.139,2.524,0.597,4.062,0.746
			c1.058,0.101,3.597,0.361,4.542-0.312c-3.763-0.021-5.812-0.874-9.062-1.85c-18.874-5.671-36.123-2.216-52.942,6.964
			c-1.19,0.648-2.336,1.27-3.517,1.91c-1.178,0.637-2.327,1.369-3.546,2.04c-1.041,0.569-3.093-0.268-4.334-0.542l-13.463-2.995
			c-14.65-3.223-32.512-6.329-45.514,2.723c-1.506,1.049-4.735,3.824-5.312,5.74c0.612-0.501,0.971-1.067,1.585-1.709
			c1.457-1.518,3.711-3.351,5.824-3.968l-3.493,2.883c-0.903,0.904-2.26,2.258-2.756,3.68c1.394-1.638,4.931-5.562,7.303-6.366
			c-0.221,0.375,0.078,0-0.312,0.407c-1.614,1.683-2.905,2.943-4.027,5.177c0.78-1.179,2.104-2.681,3.134-3.587
			c1.35-1.188,1.698-1.729,3.6-3.28c-0.351,0.605-0.926,1.149-1.4,1.762c-1.304,1.674-3.18,4.143-3.478,6.349
			c1.353-2.354,4.296-6.483,6.148-7.476c-0.228,0.575-1.842,2.721-2.39,3.735c-0.553,1.015-1.498,3.166-1.624,4.402
			c0.748-1.137,1.473-3.13,2.746-4.991c1-1.461,2.396-3.272,3.557-4.282c-1.159,2.052-4.338,6.017-3.91,9.354
			c0.02-1.13,1.771-4.139,2.327-4.954c1.023-1.502,2.155-2.896,3.278-4.073c-0.493,1.338-1.551,2.913-2.205,4.514
			c-0.599,1.454-1.429,3.634-1.441,5.377c0.415-0.798,0.666-1.778,1.063-2.646c0.41-0.894,0.825-1.769,1.271-2.604
			c0.625-1.18,2.192-3.976,2.898-4.694c-0.86,3.108-3.294,6.767-3.788,10.046c0.415-1.279,1.675-3.606,2.477-5.004
			c1.01-1.766,1.94-2.978,2.982-4.514c-0.17,1.045-1.066,3.098-1.448,4.354c-0.427,1.431-0.929,3.5-0.981,5.104
			c1-1.66,1.911-7.045,3.897-8.897c-0.214,1.138-0.949,2.694-1.304,3.992c-0.401,1.474-0.771,3.003-0.769,4.595
			c0.026-0.033,0.061-0.133,0.07-0.109l1.644-4.463c0.522-1.242,1.482-3.175,2.164-4.175c-0.832,3.153-2.712,6.551-2.691,10.076
			c0.632-3.328,2.344-6.629,4.172-9.4c0.15-0.228,0.248-0.388,0.369-0.562l0.524-0.615c-0.419,1.391-1.305,2.906-1.866,4.559
			c-0.46,1.359-1.127,3.604-1.2,5.124c1.033-2.722,1.956-5.234,3.465-7.677c0.478-0.769,1.162-1.592,1.533-2.218
			c-0.782,2.553-2.642,5.177-2.38,8.45c0.519-1.41,0.595-2.882,1.257-4.419c0.568-1.311,1.432-2.349,2.207-3.405
			c-1.391,2.229-2.541,5.363-2.585,8.689l0.619-2.396c0.521-1.967,1.718-5.021,3.282-6.053c-0.304,1.151-1.026,2.415-1.428,3.853
			c-0.354,1.264-0.758,3.182-0.685,4.513c0.528-2.333,1.344-5.602,2.729-6.954c-0.836,3.323-1.917,4.286-1.702,8.684
			c0.849-2.055,0.671-6.96,3.272-8.128c-0.618,2.233-1.701,3.671-1.65,6.574c0.28-2.168,1.787-5.612,3.048-6.537
			c-0.531,1.695-1.432,2.254-1.497,4.64c0.431-0.471,0.571-1.363,0.942-1.897c0.348-0.507,0.83-1.014,1.479-1.274
			c-0.365,2.29-1.312,2.766-1.234,6.389c0.68-1.591,0.609-3.214,1.635-5.097l0.666-1.037c0.216-0.255,0.11-0.147,0.334-0.336
			c-0.548,2.018-1.429,3.109-1.165,5.711c0.124-1.537,1.097-4.268,2.174-4.854c-0.701,2.279-1.38,3.456-1.333,6.391
			c0.648-1.31,0.726-3.243,1.548-4.897c0.189-0.385,0.628-1.053,0.706-1.301c-0.171,1.649-0.954,2.102-0.74,4.608
			c0.027-0.033,0.053-0.142,0.064-0.114c0.01,0.02,0.046-0.092,0.057-0.12c0.562-1.478,0.497-2.241,1.602-3.698
			c0.062-0.084,0.144-0.184,0.226-0.265c0.219-0.215,0.019-0.063,0.299-0.238c-0.367,1.717-0.84,2.141-0.621,4.254
			c0.176-0.622,0.236-1.375,0.435-1.999c0.232-0.742,0.554-1.217,0.717-1.826c0.183,0.291,0.098,0.68-0.009,1.084
			c-0.354,1.323-0.273,2.748-0.117,4.053c0.702-0.942,0.247-3.23,1.842-4.742c-0.217,1.188-0.464,1.499-0.076,2.756
			c0.796-2.114,0.665-2.313,2.092-4.26c-0.218,0.901-0.698,1.872-0.972,2.968c-0.305,1.224-0.344,2.229-0.569,3.458
			c-9.885,3.256-21.55,8.445-29.456,14.604c-4.117,3.208-7.651,6.713-10.729,11.292c-2.765,4.118-5.807,10.05-5.279,16.576
			c0.005-2.952,1.412-7.001,2.783-9.609c0.535-1.02,1.084-1.716,1.609-2.641c0.128,0.307-1.451,4.04-1.713,4.869
			c-0.611,1.938-0.909,4.037-0.794,6.254c0.12-0.19,0.054-0.019,0.162-0.377c0.413-1.372,0.479-3.372,1.484-6.427
			c0.687-2.08,1.577-4.099,2.674-5.644c-1.041,3.062-1.688,5.464-1.526,9.172c0.021-0.037,0.049-0.138,0.054-0.119l2.783-10.965
			c-0.182,3.638-1.17,7.074-0.269,10.991c0.121,0.522,0.037,0.363,0.269,0.718c0.194-4.643,0.403-8.647,2.034-13.039
			c0.141,0.802-1.341,8.357,0.872,13.025c-0.156-3.324-0.551-3.765-0.372-7.938c0.093-2.199,0.559-5.261,1.108-7.28
			c0.31,5.238-0.981,7.976,1.729,13.292c-0.097-2.307-0.779-2.895-0.586-6.933c0.073-1.502,0.455-5.741,0.917-6.847
			c0.487,4.866,0.511,9.844,2.614,13.673c-0.235-2.314-0.769-4.355-0.936-6.98c-0.091-1.451-0.401-6.827,0.047-7.775
			c0.196,1.217,1.45,11.455,2.356,12.643c-0.19-5.369-0.854-6.961-0.198-12.984c0.11,0.16,0.038-0.034,0.178,0.362
			c0.043,0.122,0.077,0.253,0.106,0.38c0.415,1.899,0.74,3.912,1.294,5.801c0.524,1.785,1.385,4.522,2.281,5.793
			c-1.17-5.424-2.134-7.41-1.939-13.543c0.948,3.079,1.659,9.599,3.831,12.109c-0.128-1.033-1.026-3.912-1.32-5.827
			c-0.308-2.007-0.596-4.711-0.565-6.786c0.578,0.992,1.432,8.717,3.698,12.603c-0.321-2.261-1.081-3.898-1.429-7.354
			c-0.281-2.788-0.223-5.609,0.011-8.412c0.371,3.705,0.878,7.336,2.043,10.885c0.36,1.107,0.886,2.156,1.22,3.137
			c-0.109-0.89-0.541-2.119-0.756-3.154c-0.233-1.118-0.418-2.309-0.524-3.465c-0.146-1.618-0.444-6.694,0.097-7.918
			c0.555,2.948,0.836,6.076,1.953,8.911c0.351,0.894,0.985,1.762,1.223,2.356c-0.818-2.588-2.707-7.663-1.755-10.637
			c0.101-0.313,0.066-0.201,0.155-0.353c0.312,5.212,1.293,8.268,3.503,11.958c-0.355-1.592-1.445-3.563-1.957-6.044
			c-0.642-3.136-0.319-4.377,0.054-7.349c0.488,2.176,0.502,3.951,1.167,6.136c0.633,2.062,1.345,3.333,2.119,5.052
			c-0.491-3.103-1.961-4.159-1.734-9.021c0.444,0.496,0.435,1.31,0.576,1.944c0.391,1.773,1.008,3.592,1.78,5.185
			c1.073,2.211-0.092,2.095-2.304,6.115c-4.803,8.74-7.883,17.414-10.021,27.463c-1.495,7.014-0.98,7.856-4.465,14.389l1.971-2.728
			c1.271-2.003,2.329-4.233,3.031-6.593c0.391-1.31,0.575-2.751,0.931-3.993c0.199,5.661-1.047,7.654-1.509,11.843
			c0.91-1.087,1.755-4.694,2.116-6.481c0.609-3.002,0.414-5.018,0.611-8.049c0.225,1.455,0.552,2.5,0.596,4.263
			c0.034,1.475-0.345,3.587-0.267,4.622c1.263-6.284,0.467-5.409-0.067-10.964c1.17,1.896,1.544,6.199,1.688,8.847
			c1.177-2.736-0.09-8.178-0.351-10.763c0.979,1.055,1.567,4.277,1.848,5.653l0.285,1.575c0.03,0.102,0.04,0.15,0.08,0.258
			c0.155,0.407,0.061,0.187,0.188,0.374c0.167-2.541-0.243-5.154-0.949-7.528c-0.12-0.408-0.207-0.696-0.342-1.063
			c-0.153-0.429-0.326-0.812-0.116-1.164c0.595,1.646,1.401,3.034,1.959,5.05c0.338,1.235,0.946,5.201,1.264,5.885
			c0.338-3.539-0.354-7.337-1.504-10.592c-0.332-0.938-0.899-2.066-1.117-2.889c2.515,3.302,3.347,8.979,4.493,10.864
			c-0.137-3.046-1.396-6.841-2.343-9.781c-0.306-0.95-0.842-2.116-1.018-2.916c1.642,2.943,2.741,5.126,3.635,8.506
			c0.23,0.876,0.495,2.689,0.782,3.376c0.559-4.694-1.32-8.953-2.26-12.688c0.875,1.048,1.628,2.725,2.177,4.277
			c0.257,0.718,1.169,4.6,1.531,5.092c0.006-4.184-1.699-7.104-2.372-10.67c1.404,1.319,3.41,8.542,3.816,10.104
			c0.166-3.169-1.021-7.067-1.989-10.016c-0.324-0.983-0.877-2.134-1.077-3.047c1.774,0.734,4.379,3.625,5.526,4.958
			c1.287,1.491,3.333,4.267,4.22,6.064c-1.458-4.019-4.497-8.474-6.989-11.827c-0.454-0.608-2.343-3.062-2.787-3.404
			c3.18,2.214,5.778,5.041,7.87,8.251c0.648,0.997,1.571,2.24,2.075,3.239c-1.44-4.001-6.258-10.403-8.872-13.67
			c1.869,1.324,3.581,3.282,5.122,4.972c1.664,1.821,2.929,3.896,4.524,5.804c-0.744-1.896-2.576-4.694-3.682-6.335
			c-0.695-1.028-1.318-1.9-2.08-2.883c-0.715-0.922-1.686-1.932-2.293-2.896c1.096,0.516,4.138,4.139,5.214,5.397l3.501,4.413
			c0.382,0.515,0.746,1.185,1.265,1.592c-0.961-2.695-6.991-10.172-8.646-12.271c1.104,0.766,3.923,3.773,4.869,4.973
			c1.337,1.688,3.269,3.612,4.325,5.475c-2.02-4.497-7.026-9.261-7.699-10.314c0.999,0.555,2.173,1.613,3.032,2.386
			c1.965,1.781,3.875,3.586,5.547,5.626c0.808,0.981,1.711,2.086,2.551,2.964c-0.412-0.872-1.472-2.322-2.067-3.146
			c-1.854-2.566-3.74-5.048-5.949-7.228c-0.492-0.484-1.014-0.841-1.404-1.369c1.892,0.878,7.438,6.585,8.464,8.752
			c-0.905-2.588-3.103-5.453-4.81-7.616c-0.62-0.789-1.405-1.529-1.906-2.252c1.956,0.929,5.493,5.4,7.059,6.965
			c-0.696-1.339-4.471-6.185-5.942-7.04c3.17,1.274,6.479,5.476,8.88,7.804c-0.501-0.922-1.368-1.953-2.047-2.835
			c-1.763-2.299-3.795-4.521-5.9-6.506c-0.377-0.358-1.09-1.026-1.313-1.321c2.284,1.086,5.177,4.269,7.05,5.975
			c0.783,0.715,1.308,1.479,2.054,2.222c-1.459-3.108-4.18-5.21-6.604-7.414c2.886,0.871,7.57,5.981,9.249,7.86
			c-1.144-2.256-5.113-6.546-6.991-8.284c-0.862-0.798-1.952-1.625-2.732-2.506c1.302,0.548,3.989,2.632,4.949,3.546
			c0.79,0.752,1.403,1.216,2.142,2.046c0.586,0.659,1.422,1.745,2.044,2.297c-0.793-2.214-2.475-4.174-3.988-5.78
			c-0.522-0.553-1.257-1.111-1.749-1.669c1.098,0.421,2.333,1.537,3.1,2.179c0.788,0.667,1.889,2.228,2.681,2.675
			c-1.347-2.687-4.857-5.414-7.151-7.306c2.207,0.848,7.82,5.254,9.017,6.642c-0.205,0.484-0.363,0.527-0.629,0.905
			c0.502-0.265,0.525-0.425,1.081-0.582l0.785,0.709c-0.331,0.773-0.989,1.064-1.428,1.865c1.324-0.774,2.58-2.045,4.647-2.384
			c-1.759,1.461-4.511,2.772-5.718,4.855c1.131-0.797,3.922-2.952,5.721-3.221c-1.351,1.497-3.735,2.469-4.533,4.468
			c1.745-0.97,2.734-2.748,5.274-3.159c-0.842,0.729-3.372,2.926-3.748,3.98c0.526-0.247,1.111-0.805,1.674-1.169
			c0.514-0.336,1.297-0.782,1.926-0.95c-0.422,0.408-0.917,0.743-1.302,1.111c-1.274,1.229-2.738,2.6-3.45,4.294
			c1.405-0.897,2.549-2.356,4.661-2.794c-0.308,0.417-1.03,0.859-1.521,1.287c-0.618,0.539-0.959,0.83-1.494,1.457
			c-0.846,0.989-1.74,2.043-2.388,3.265c1.342-0.951,3.02-3.091,5.042-3.682c-1.214,1.28-2.268,1.728-3.22,3.52
			c0.742-0.525,2.056-1.632,3.25-1.835c-0.547,0.542-1.599,1.168-2.291,1.763c-0.731,0.631-1.484,1.25-2.115,2.109
			c1.393-0.568,2.66-1.843,4.482-2.243c-1.58,0.567-3.116,2.5-4.202,3.729c0.674-0.534,2.561-1.998,3.664-2.272
			c-1.034,1.311-3.029,1.959-3.748,4.046c1.063-0.856,2.216-2.3,4.189-2.756c-1.517,1.337-3.289,2.428-4.342,4.299
			c0.456-0.281,0.45-0.367,0.904-0.788c0.86-0.803,2.063-1.68,3.284-1.966c-0.907,0.951-2.905,1.883-3.2,3.29
			c0.428-0.701,2.391-1.839,3.497-2.035c-1.337,1.071-3.647,2.71-4.167,4.574c0.841-0.771,2.441-2.533,4.057-2.928
			c-0.311,0.49-0.391,0.389-0.814,0.789c-0.86,0.794-1.692,1.498-2.127,2.63c1.127-0.701,1.809-1.693,3.212-1.98
			c-0.775,1.057-1.962,1.647-2.574,3.377c0.974-0.647,1.254-1.42,2.709-1.812c-0.75,0.726-2.149,2.022-2.576,3.336
			c0.587-0.669,1.613-1.731,2.729-1.952c-0.851,1.124-2.186,2.112-2.88,3.825c0.722-0.763,1.792-2.006,2.892-2.454
			c-1.01,1.604-2.564,3.196-2.943,5.266c1.194-1.194,1.274-2.498,3.23-3.818c-1.193,1.77-2.852,4.522-3.069,7.419
			c1.387-2.026,0.619-3.17,3.37-6.011c-0.15,0.604-0.605,1.482-0.853,2.127c-0.729,1.896-1.94,5.595-1.94,7.487
			c-0.216-1.067,2.164-6.7,2.986-7.522c-0.434,1.806-1.279,3.626-1.766,5.536c-0.343,1.352-1.172,4.782-1.083,6.029
			c0.004-1.197,2.472-7.532,3.156-8.182c-0.919,3.838-2.186,5.663-2.206,10.373l0.438-1.139c0.079-0.39,0.143-0.664,0.25-1.097
			c0.525-2.085,1.498-4.186,2.531-5.868c0.02,0.752-2.2,5.393-2.036,13.173c0.889-2.424-0.114-6.837,3.02-10.087
			c-0.054,0.809-0.423,2.04-0.593,2.906c-0.655,3.286-1.164,6.569-1.113,9.98c0.131-0.209,0.023,0.152,0.161-0.387
			c0.461-1.836,0.57-6.509,1.451-7.783c-0.008,1.987-0.171,3.902-0.117,5.947c0.05,1.941,0.201,3.792,0.324,5.704
			c0.594-3.63-0.488-7.853,2.216-10.149c2.725,3.249,3.344,7.64,3.484,12.958c0.643-3.062,0.02-7.171-0.826-10.216
			c-0.288-1.022-0.77-2.034-0.986-3.01l0.203,0.173c0.469,0.509,0.902,1.465,1.227,2.077c1.19,2.235,2.077,4.569,2.974,6.958
			l0.342,0.65c-0.079-1.958-1.292-5.476-1.949-7.097c-1.034-2.542-2.552-4.501-3.201-6.019c1.385,0.764,3.726,4.771,4.604,6.681
			c-0.348-2.434-4.851-8.64-6.221-9.334c3.917,2.4,5.191,5.605,6.441,6.617c-0.57-2.361-2.825-5.101-4.339-6.868
			c-0.598-0.702-1.374-1.354-1.859-1.982c1.735,0.755,3.799,2.813,5.05,4.227c0.26,0.294,1.232,1.394,1.551,1.614
			c-1.261-3.2-4.725-5.824-7.213-8c2.363,0.755,5.43,3.635,7.072,5.434c0.515,0.566,1.504,1.72,2.038,2.129
			c-1.052-2.14-7.4-8.714-9.384-9.863c1.392,0.481,3.779,2.161,4.948,2.995c0.789,0.562,1.596,1.189,2.272,1.76
			c0.798,0.674,1.448,1.497,2.321,1.905c-1.267-2.381-7.037-6.656-9.438-8.7c2.533,0.775,9.58,6.387,10.147,7.777
			c-0.533-1.019-1.459-1.974-2.232-2.86c-2.114-2.415-4.334-4.669-6.751-6.742c-0.515-0.44-1.116-0.876-1.488-1.317
			c3.124,1.018,9.559,7.334,10.258,7.763c-0.853-2.693-8.128-8.564-10.829-10.029c4.114,0.521,8.178,5.724,11.113,7.965
			c-1.017-2.435-5.858-6.922-8.147-8.545c-0.685-0.49-2.541-1.712-3.4-2.027c1.918-0.081,6.969,1.671,8.72,2.287
			c1.366,0.485,2.695,1.042,3.984,1.591c1.328,0.569,2.705,1.318,4.013,1.766c-1.716-2.4-15.41-7.103-16.362-7.742
			c2.515-0.008,6.072,1.004,8.201,1.769c1.248,0.447,2.327,0.906,3.511,1.439c1.126,0.51,2.286,1.206,3.343,1.571
			c-3.647-2.69-8.401-4.839-12.853-6.339l-1.744-0.588c-0.269-0.127-0.2-0.102-0.327-0.188c4.884,0.289,9.431,2.799,11.892,3.316
			c-1.007-1.155-9.715-4.469-10.546-4.907l-0.424-0.285c3.07,0.248,7.259,1.84,10.203,2.934c0.959,0.349,2.281,0.948,3.216,1.149
			c-1.848-1.788-12.666-5.116-13.693-5.737c4.715,0.466,10.411,3.173,12.417,3.544c-1.739-1.391-8.21-3.57-10.912-4.301
			c-0.525-0.14-1.203-0.223-1.688-0.53c2.618,0.029,6.317,0.9,8.772,1.562c1.763,0.476,6.535,2.113,7.83,2.287
			c-2.461-0.844-5.061-2.08-7.921-2.998l-8.778-2.378c3.329-0.151,7.35,1.059,10.485,2.052c1.015,0.326,2.239,0.863,3.169,1.043
			c-2.633-2.153-11.669-3.86-12.929-4.486c4.48,0.101,8.544,1.679,12.086,2.093c-0.63-0.093-2.364-0.784-3.186-1.043
			c-1.107-0.348-2.171-0.656-3.326-1.002c-2.221-0.669-4.778-1.075-6.895-1.726c2.507-0.182,5.884,0.507,8.25,0.988
			c2.124,0.433,5.941,1.578,7.727,1.772c-1.304-1.049-12.038-4.242-14.226-3.943c1.92-0.134,4.57,0.227,6.456,0.519
			c2,0.31,4.202,1.044,5.915,1.258c-1.767-1.358-10.485-3.027-13.438-3.229c0.422,0.035,2.442-0.196,4.402-0.006
			c1.482,0.148,2.883,0.365,4.281,0.623c2.86,0.521,5.555,1.254,8.104,1.897c-4.042-1.904-10.442-3.301-15.168-3.958l-1.143-0.327
			c2.281-0.092,4.907,0.207,7.137,0.541c2.27,0.341,4.473,1.089,6.454,1.379l-0.604-0.408c-2.55-1.227-5.873-1.973-8.62-2.535
			c-1.053-0.213-2.664-0.354-3.569-0.608c2.062-0.173,4.439,0.194,6.452,0.518c1.956,0.317,4.175,0.968,5.882,1.146
			c-0.272-0.206-0.251-0.192-0.635-0.352c-1.703-0.71-3.522-1.205-5.341-1.64c-1.046-0.251-2.229-0.535-3.263-0.718
			c-1.073-0.19-2.69-0.285-3.521-0.53c6.185-0.341,9.735,1.229,14.917,1.683c-2.537-1.581-11.681-2.575-14.931-3.188
			c2.134-0.108,4.417,0.152,6.504,0.423c0.936,0.124,5.593,1.003,5.837,0.907c-1.87-0.807-3.985-1.445-6.005-1.959
			c-1.12-0.288-2.173-0.523-3.307-0.754l-3.27-0.682c-0.033-0.013-0.084-0.037-0.124-0.06c5.183-0.351,10.605,0.53,15.631,1.57
			c1.443,0.299,3.223,0.842,4.559,1.027c-0.792-0.123-3.329-1.069-4.382-1.374c-4.922-1.42-9.807-2.356-14.888-2.985
			c0.501-0.368,1.311-0.303,1.93-0.314c4.405-0.107,9.236,0.578,13.295,1.893c-2.915-1.11-2.681-1.331-6.593-2.441l-7.514-1.685
			c4.06-0.02,8.255,0.682,12.175,1.516c1.243,0.263,2.688,0.711,3.871,0.864c-0.639-0.695-2.903-1.329-3.758-1.604
			c-1.278-0.416-2.65-0.822-4.079-1.198c-4.2-1.1-5.182-0.93-8.185-1.517c-0.452-0.089,0.154,0.066-0.264-0.057
			c-0.395-0.117-0.143-0.005-0.365-0.153c4.602-0.271,8.924,0.581,13.27,1.614c1.271,0.3,2.956,0.908,4.146,1.036l-0.414-0.253
			c-0.145-0.069-0.294-0.122-0.451-0.175c-2.467-0.856-4.958-1.485-7.506-2.076c-1.538-0.357-3.026-0.639-4.55-0.907
			c-1.481-0.26-3.507-0.427-4.808-0.747c2.584-0.118,5.881,0.322,8.401,0.707c2.149,0.329,6.646,1.438,7.592,1.544
			c-2.326-1.57-7.682-2.678-10.745-3.354c-1.236-0.275-2.994-0.301-4.022-0.827c4.602-0.164,9.649,0.819,13.996,1.743
			c3.413,0.729,2.314,0.795,4.641,4.947c8.865,15.827,18.4,35.184,22.717,53.291c3.675,15.412,3.688,30.089,1.735,46.252
			c-1.201,9.938-3.207,19.583-5.402,29.277c-0.237,1.051-0.194,1.799-0.934,2.326c-2.065,1.479-5.389,4.006-7.682,5.003
			c0.898-1.9,2.818-2.989,3.784-7.529c0.454-2.14,0.534-8.393-0.305-10.229c-0.581,3.944-0.243,5.087-1.353,9.846
			c-0.466,1.992-2.07,7.23-3.045,8.377c0.372-1.401,0.935-2.631,1.246-4.258c0.343-1.786,0.359-3.535,0.083-5.312
			c-0.354-2.261-1.993-6.972-3.053-8.407c0.124,1.204,0.611,2.801,0.836,4.057c0.639,3.641,1.283,10.731,0.303,13.999
			c-2.121-2.449-3.99-6.052-5.405-9.174c-0.435-0.957-0.953-2.643-1.457-3.451c0.149,3.827,1.923,9.39,4.54,12.169
			c0.492,0.522,0.893,0.778,1.211,1.32c-1.231,1.147-6.242,2.826-7.653,3.256C175.851,392.816,170.956,393.914,169.619,394.851z"/>
	</g>
</g>
<path fill-rule="evenodd" clip-rule="evenodd" fill="#FFFFFF" d="M291.145,438.161c0.063,0.319,0.101,0.639,0.101,0.96
	c0,6.248-12.94,11.777-32.792,15.149c1.452,1.938,2.24,4.01,2.24,6.16c0,10.858-20.023,19.663-44.724,19.663
	c-24.701,0-44.725-8.805-44.725-19.663c0-1.848,0.581-3.633,1.663-5.328c-22.843-3.246-38.138-9.189-38.138-15.981v-0.016
	c-0.477,0.009-0.96,0.016-1.442,0.016c-17.183,0-31.112-6.716-31.112-15c0-2.14,0.927-4.174,2.605-6.016
	c-11.748-2.31-23.533-4.495-35.429-6.396c0,0,156.532-68.037,260.724,21.408C330.117,433.118,313.021,435.946,291.145,438.161z"/>
<g>
	<text transform="matrix(1 0 0 1 157.0317 76.5269)"><tspan x="0" y="0" fill="#FFFFFF" font-family="'BebasNeueRegular'" font-size="62.2179" letter-spacing="6">2016</tspan><tspan x="-117.339" y="53.925" fill="#FFFFFF" font-family="'BebasNeueBold'" font-size="62.2179" letter-spacing="6">Miami Bitcoin</tspan><tspan x="-118.337" y="107.851" fill="#FFFFFF" font-family="'BebasNeueRegular'" font-size="62.2179" letter-spacing="15">hacKathon</tspan></text>
</g>
</svg>
