<?xml version="1.0" encoding="utf-8"?>
<!-- Generator: Adobe Illustrator 19.2.0, SVG Export Plug-In . SVG Version: 6.00 Build 0)  -->
<svg version="1.1" id="Capa_1" xmlns="http://www.w3.org/2000/svg" xmlns:xlink="http://www.w3.org/1999/xlink" x="0px" y="0px"
	 viewBox="0 0 84 84" style="enable-background:new 0 0 84 84;" xml:space="preserve">
<style type="text/css">
	.st0{fill:#5A5A5A;}
</style>
<g id="_x37_7_Essential_Icons_34_">
	<path id="Medal" class="st0" d="M73.3,42.9l-12.8-1.7L69,2.4C69.2,1.2,68.3,0,67,0H17c-1.3,0-2.2,1.2-2,2.4l8.6,38.8l-12.9,1.7
		c-1.6,0.2-2.4,2.2-1.1,3.4l15.1,14.5l-3.8,20.8c-0.3,1.7,1.5,2.9,2.9,2.1l18.2-10l18.2,10.1c-2.2-1.3,2.9,2.3,2.9-2.1l-3.8-20.8
		l15.1-14.5C75.6,45.2,74.9,43.2,73.3,42.9z M44,4h20.5l-8.1,36.7l-3.7-0.5L44,21.5C44,21.5,44,4,44,4z M19.5,4H40v17.5l-8.7,18.7
		l-3.7,0.5L19.5,4z M55.8,58.7c-0.5,0.5-0.7,1.1-0.6,1.8l3.2,17.7L43,69.6c-0.3-0.2-0.6-0.3-1-0.3c-0.3,0-0.7,0.1-1,0.3l-15.5,8.6
		l3.2-17.7c0.1-0.7-0.1-1.3-0.6-1.8L15.4,46.3L32.9,44c0.7-0.1,1.3-0.5,1.5-1.1L42,26.7l7.5,16.2c0.3,0.6,0.9,1,1.5,1.1l17.5,2.3
		L55.8,58.7z"/>
</g>
</svg>
