<?xml version="1.0" encoding="utf-8"?>
<!-- Generator: Adobe Illustrator 19.2.0, SVG Export Plug-In . SVG Version: 6.00 Build 0)  -->
<svg version="1.1" id="Capa_1" xmlns="http://www.w3.org/2000/svg" xmlns:xlink="http://www.w3.org/1999/xlink" x="0px" y="0px"
	 viewBox="0 0 280 280" style="enable-background:new 0 0 280 280;" xml:space="preserve">
<style type="text/css">
	.st0{fill:#5A5A5A;}
</style>
<path shape-rendering="auto" image-rendering="auto" color-rendering="auto" color-interpolation="sRGB" class="st0" d="M50,0
	c-2.8,0-5,2.2-5.1,4.9c0,1,0.3,2,0.8,2.8l44,96.7C62.9,121.2,45,151.1,45,185c0,52.4,42.6,95,95,95s95-42.6,95-95
	c0-33.9-17.9-63.8-44.7-80.6l43.9-96.7c1.5-2.3,0.9-5.4-1.4-6.9C232,0.3,231,0,230,0h-60c-2.3,0-4.3,1.5-4.9,3.7L140,58.9L114.9,3.7
	C114.3,1.5,112.3,0,110,0C110,0,50,0,50,0z M57.8,10h9L106,96.3c-2.6,1-5.1,2.1-7.5,3.3L57.8,10z M77.8,10h29l36.4,80.1
	c-1.1,0-2.1-0.1-3.2-0.1c-8.4,0-16.6,1.1-24.4,3.2L77.8,10L77.8,10z M173.2,10h29l-37.8,83.2c-3.2-0.9-6.5-1.5-9.8-2.1L145.5,71
	L173.2,10z M213.2,10h9l-40.7,89.6c-2.5-1.2-5-2.3-7.5-3.3L213.2,10z M140,100c47,0,85,38,85,85s-38,85-85,85s-85-38-85-85
	C55,138,93,100,140,100z M140,113.9c-39.2,0-71.1,31.9-71.1,71.1s31.9,71.1,71.1,71.1s71.1-31.9,71.1-71.1
	C211.1,145.8,179.2,113.9,140,113.9z M140,123.9c33.8,0,61.1,27.3,61.1,61.1s-27.3,61.1-61.1,61.1S78.9,218.8,78.9,185
	S106.2,123.9,140,123.9z M140.2,150.3c-1.9-0.1-3.6,0.9-4.5,2.6l-9,16.2l-19.1,4.1c-2.7,0.6-4.4,3.2-3.8,5.9
	c0.2,0.9,0.6,1.7,1.2,2.4l12.7,13.6l-2,19.4c-0.3,2.7,1.7,5.2,4.5,5.5c0.9,0.1,1.8-0.1,2.6-0.4l16.8-7.9l17.8,7.9
	c0.6,0.3,1.3,0.4,2,0.4c2.8,0,5-2.2,5-5c0-0.2,0-0.4,0-0.6l-2.3-18.4l13-14.5c1.8-2.1,1.7-5.2-0.4-7.1c-0.7-0.6-1.5-1-2.4-1.2
	l-18.2-3.5l-9.8-16.9C143.5,151.3,141.9,150.3,140.2,150.3L140.2,150.3z M140.1,165.4l6.5,11.2c0.7,1.3,2,2.1,3.4,2.4l11.8,2.3
	l-8.6,9.6c-1,1.1-1.4,2.5-1.2,4l1.5,11.9l-11.8-5.2c-1.3-0.6-2.8-0.6-4.1,0l-10.9,5.1l1.3-12.9c0.1-1.4-0.3-2.9-1.3-3.9l-8.2-8.8
	l12.7-2.7c1.4-0.3,2.6-1.2,3.3-2.5L140.1,165.4z"/>
</svg>
